<?xml version="1.0" encoding="UTF-8"?>
<!DOCTYPE svg PUBLIC "-//W3C//DTD SVG 1.1//EN" "http://www.w3.org/Graphics/SVG/1.1/DTD/svg11.dtd">
<svg xmlns="http://www.w3.org/2000/svg" version="1.1" width="410px" height="249px" style="shape-rendering:geometricPrecision; text-rendering:geometricPrecision; image-rendering:optimizeQuality; fill-rule:evenodd; clip-rule:evenodd" xmlns:xlink="http://www.w3.org/1999/xlink">
<g><path style="opacity:0.029" fill="#f8fce7" d="M 203.5,102.5 C 199.936,101.577 196.269,101.244 192.5,101.5C 192.88,103.698 192.213,105.365 190.5,106.5C 190.936,104.254 191.603,102.087 192.5,100C 195.833,99.3333 199.167,99.3333 202.5,100C 203.252,100.671 203.586,101.504 203.5,102.5 Z"/></g>
<g><path style="opacity:0.999" fill="#d7f65f" d="M 86.5,114.5 C 85.9524,112.606 84.9524,110.94 83.5,109.5C 82.8076,110.025 82.3076,110.692 82,111.5C 81.5831,110.244 80.7498,109.577 79.5,109.5C 85.2799,101.848 92.9466,99.0149 102.5,101C 107.546,102.183 111.546,104.85 114.5,109C 113.846,110.987 112.513,112.32 110.5,113C 106.3,111.277 101.8,110.111 97,109.5C 92.947,109.943 89.447,111.609 86.5,114.5 Z"/></g>
<g><path style="opacity:0.04" fill="#fafdee" d="M 345.5,101.5 C 346.661,116.661 346.828,131.994 346,147.5C 344.094,148.131 342.094,148.464 340,148.5C 337.705,148.453 335.871,147.787 334.5,146.5C 334.833,146.5 335.167,146.5 335.5,146.5C 338.5,146.5 341.5,146.5 344.5,146.5C 345.496,131.676 345.829,116.676 345.5,101.5 Z"/></g>
<g><path style="opacity:0.137" fill="#f8fce4" d="M 409.5,110.5 C 409.5,111.5 409.5,112.5 409.5,113.5C 404.306,105.569 396.973,101.235 387.5,100.5C 384.215,100.447 381.215,101.114 378.5,102.5C 374.632,104.029 371.299,106.363 368.5,109.5C 372.619,102.27 378.953,98.9371 387.5,99.5C 396.783,99.4746 404.116,103.141 409.5,110.5 Z"/></g>
<g><path style="opacity:0.376" fill="#f3fbd0" d="M 1.5,102.5 C 9.68413,102.174 17.6841,102.508 25.5,103.5C 17.5,103.5 9.5,103.5 1.5,103.5C 1.17428,111.684 1.50761,119.684 2.5,127.5C 10.1667,127.5 17.8333,127.5 25.5,127.5C 17.6841,128.492 9.68413,128.826 1.5,128.5C 0.166667,119.833 0.166667,111.167 1.5,102.5 Z"/></g>
<g><path style="opacity:1" fill="#d7f65f" d="M 203.5,102.5 C 206.3,113.087 210.3,123.087 215.5,132.5C 215.872,136.297 217.206,139.63 219.5,142.5C 219.5,143.833 219.5,145.167 219.5,146.5C 216.5,146.5 213.5,146.5 210.5,146.5C 209.519,144.604 208.519,142.604 207.5,140.5C 201.167,139.167 194.833,139.167 188.5,140.5C 187.37,141.622 186.703,142.956 186.5,144.5C 183.512,146.273 180.179,146.94 176.5,146.5C 176.5,145.167 176.5,143.833 176.5,142.5C 178.397,140.302 179.397,137.636 179.5,134.5C 182.486,130.789 184.152,126.456 184.5,121.5C 185.931,120.22 186.598,118.553 186.5,116.5C 187.931,115.22 188.598,113.553 188.5,111.5C 189.931,110.22 190.598,108.553 190.5,106.5C 192.213,105.365 192.88,103.698 192.5,101.5C 196.269,101.244 199.936,101.577 203.5,102.5 Z M 196.5,120.5 C 198.908,121.315 199.741,122.981 199,125.5C 197.628,124.09 196.795,122.423 196.5,120.5 Z M 197.5,126.5 C 198.5,126.5 199.5,126.5 200.5,126.5C 200.5,127.5 200.5,128.5 200.5,129.5C 198.801,129.66 197.134,129.494 195.5,129C 196.756,128.583 197.423,127.75 197.5,126.5 Z"/></g>
<g><path style="opacity:0.925" fill="#daf76e" d="M 25.5,103.5 C 25.5,106.833 25.5,110.167 25.5,113.5C 24.5233,110.713 24.19,107.713 24.5,104.5C 17.1667,104.5 9.83333,104.5 2.5,104.5C 2.5,112.167 2.5,119.833 2.5,127.5C 1.50761,119.684 1.17428,111.684 1.5,103.5C 9.5,103.5 17.5,103.5 25.5,103.5 Z"/></g>
<g><path style="opacity:1" fill="#d7f65d" d="M 409.5,113.5 C 409.5,119.833 409.5,126.167 409.5,132.5C 409.167,132.5 408.833,132.5 408.5,132.5C 406.837,130.562 406.171,128.228 406.5,125.5C 405.178,125.67 404.011,125.337 403,124.5C 402.333,125.833 402.333,127.167 403,128.5C 404.131,127.396 404.965,127.729 405.5,129.5C 405.062,130.506 404.396,130.506 403.5,129.5C 402.614,130.325 402.281,131.325 402.5,132.5C 400.738,132.643 399.071,132.309 397.5,131.5C 395.484,135.376 394.651,135.376 395,131.5C 393.855,132.636 392.688,133.636 391.5,134.5C 389.243,133.438 388.077,131.772 388,129.5C 389.973,128.36 391.807,127.027 393.5,125.5C 395.709,126.92 397.709,128.587 399.5,130.5C 403.997,120.98 401.33,114.147 391.5,110C 388.854,109.503 386.187,109.336 383.5,109.5C 382.022,109.762 380.689,109.429 379.5,108.5C 378.737,107.281 377.737,106.281 376.5,105.5C 377.193,104.482 377.859,103.482 378.5,102.5C 381.215,101.114 384.215,100.447 387.5,100.5C 396.973,101.235 404.306,105.569 409.5,113.5 Z"/></g>
<g><path style="opacity:1" fill="#d7f65e" d="M 252.5,119.5 C 251.458,120.791 250.292,120.791 249,119.5C 250.114,121.669 249.614,123.502 247.5,125C 249.235,125.651 250.902,125.485 252.5,124.5C 253.711,125.274 253.711,126.107 252.5,127C 254.55,127.416 255.884,128.583 256.5,130.5C 250.344,128.505 244.511,125.838 239,122.5C 233.064,109.368 237.231,102.035 251.5,100.5C 256.649,100.492 260.815,102.492 264,106.5C 262.916,113.605 259.75,114.772 254.5,110C 251.331,109.022 248.497,109.522 246,111.5C 245.674,116.022 247.841,118.689 252.5,119.5 Z"/></g>
<g><path style="opacity:1" fill="#d7f65e" d="M 378.5,102.5 C 377.859,103.482 377.193,104.482 376.5,105.5C 377.737,106.281 378.737,107.281 379.5,108.5C 380.689,109.429 382.022,109.762 383.5,109.5C 379.99,111.357 377.157,114.024 375,117.5C 372.971,125.099 374.804,131.432 380.5,136.5C 377.903,136.721 377.903,137.221 380.5,138C 379.354,138.645 378.354,139.478 377.5,140.5C 376.138,137.976 374.305,135.976 372,134.5C 369.98,135.032 369.147,136.365 369.5,138.5C 369.167,138.5 368.833,138.5 368.5,138.5C 366.625,135.412 365.292,132.078 364.5,128.5C 364.248,123.012 364.915,117.678 366.5,112.5C 367.906,112.027 368.573,111.027 368.5,109.5C 371.299,106.363 374.632,104.029 378.5,102.5 Z"/></g>
<g><path style="opacity:0.129" fill="#f7fce5" d="M 133.5,99.5 C 136.85,99.335 140.183,99.5017 143.5,100C 144,100.5 144.5,101 145,101.5C 144.38,112.755 144.38,124.088 145,135.5C 150.121,136.461 155.288,136.628 160.5,136C 161.833,140 161.833,144 160.5,148C 151.255,148.817 142.089,148.65 133,147.5C 132.183,131.426 132.35,115.426 133.5,99.5 Z"/></g>
<g><path style="opacity:1" fill="#d5f656" d="M 143.5,137.5 C 148.64,138.488 153.974,138.821 159.5,138.5C 159.5,140.833 159.5,143.167 159.5,145.5C 150.983,145.826 142.65,145.493 134.5,144.5C 135.331,131.673 135.831,118.673 136,105.5C 136.5,118.496 136.667,131.496 136.5,144.5C 142.5,144.5 148.5,144.5 154.5,144.5C 154.5,143.5 154.5,142.5 154.5,141.5C 149.821,141.666 145.155,141.499 140.5,141C 139.692,140.692 139.025,140.192 138.5,139.5C 138.264,128.243 138.597,116.909 139.5,105.5C 140.167,104.5 140.833,103.5 141.5,102.5C 142.167,114.326 142.833,125.993 143.5,137.5 Z"/></g>
<g><path style="opacity:1" fill="#d7f75f" d="M 134.5,101.5 C 137.5,101.5 140.5,101.5 143.5,101.5C 143.5,113.5 143.5,125.5 143.5,137.5C 142.833,125.993 142.167,114.326 141.5,102.5C 140.833,103.5 140.167,104.5 139.5,105.5C 138.597,116.909 138.264,128.243 138.5,139.5C 139.025,140.192 139.692,140.692 140.5,141C 145.155,141.499 149.821,141.666 154.5,141.5C 154.5,142.5 154.5,143.5 154.5,144.5C 148.5,144.5 142.5,144.5 136.5,144.5C 136.667,131.496 136.5,118.496 136,105.5C 135.831,118.673 135.331,131.673 134.5,144.5C 134.5,130.167 134.5,115.833 134.5,101.5 Z"/></g>
<g><path style="opacity:1" fill="#d6f65b" d="M 25.5,113.5 C 34.5062,113.666 43.5062,113.5 52.5,113C 54.5407,109.638 57.5407,108.638 61.5,110C 66.0231,115.74 64.8564,119.907 58,122.5C 55.4853,122.158 53.652,120.825 52.5,118.5C 43.5246,117.502 34.5246,117.168 25.5,117.5C 25.5,120.833 25.5,124.167 25.5,127.5C 17.8333,127.5 10.1667,127.5 2.5,127.5C 2.5,119.833 2.5,112.167 2.5,104.5C 9.83333,104.5 17.1667,104.5 24.5,104.5C 24.19,107.713 24.5233,110.713 25.5,113.5 Z"/></g>
<g><path style="opacity:1" fill="#d7f65d" d="M 302.5,119.5 C 300.054,121.501 297.387,122.501 294.5,122.5C 296.678,123.979 299.012,125.312 301.5,126.5C 299.674,126.92 297.674,126.92 295.5,126.5C 290.167,125.167 286.833,121.833 285.5,116.5C 284.593,109.849 286.926,104.849 292.5,101.5C 301.549,98.7023 308.883,101.036 314.5,108.5C 312.5,110.167 310.5,111.833 308.5,113.5C 304.427,109.228 299.927,108.561 295,111.5C 294.333,112.833 294.333,114.167 295,115.5C 297.157,117.495 299.657,118.828 302.5,119.5 Z"/></g>
<g><path style="opacity:0.348" fill="#f3fbd2" d="M 345.5,101.5 C 345.829,116.676 345.496,131.676 344.5,146.5C 344.5,131.5 344.5,116.5 344.5,101.5C 341.5,101.5 338.5,101.5 335.5,101.5C 335.5,116.5 335.5,131.5 335.5,146.5C 335.167,146.5 334.833,146.5 334.5,146.5C 333.339,131.672 333.172,116.672 334,101.5C 335.698,100.267 337.698,99.6004 340,99.5C 342.295,99.5465 344.129,100.213 345.5,101.5 Z"/></g>
<g><path style="opacity:0.995" fill="#d6f65a" d="M 344.5,146.5 C 341.5,146.5 338.5,146.5 335.5,146.5C 335.5,131.5 335.5,116.5 335.5,101.5C 338.5,101.5 341.5,101.5 344.5,101.5C 344.5,116.5 344.5,131.5 344.5,146.5 Z"/></g>
<g><path style="opacity:1" fill="#d7f65d" d="M 79.5,109.5 C 80.7498,109.577 81.5831,110.244 82,111.5C 82.3076,110.692 82.8076,110.025 83.5,109.5C 84.9524,110.94 85.9524,112.606 86.5,114.5C 81.5461,124.637 83.8794,132.637 93.5,138.5C 90.9028,138.721 90.9028,139.221 93.5,140C 91.8333,140.333 90.1667,140.667 88.5,141C 87.6634,142.011 87.33,143.178 87.5,144.5C 86.5,144.5 85.5,144.5 84.5,144.5C 82.5,141.833 80.1667,139.5 77.5,137.5C 77.3794,134.895 76.3794,132.895 74.5,131.5C 74.3599,125.464 74.6932,119.464 75.5,113.5C 76.9063,113.027 77.573,112.027 77.5,110.5C 78.1667,110.167 78.8333,109.833 79.5,109.5 Z"/></g>
<g><path style="opacity:0.067" fill="#fafcec" d="M 190.5,106.5 C 190.598,108.553 189.931,110.22 188.5,111.5C 188.402,109.447 189.069,107.78 190.5,106.5 Z"/></g>
<g><path style="opacity:0.047" fill="#f7fce1" d="M 102.5,136.5 C 102.389,137.117 102.056,137.617 101.5,138C 98.854,138.497 96.1873,138.664 93.5,138.5C 83.8794,132.637 81.5461,124.637 86.5,114.5C 89.447,111.609 92.947,109.943 97,109.5C 101.8,110.111 106.3,111.277 110.5,113C 112.513,112.32 113.846,110.987 114.5,109C 111.546,104.85 107.546,102.183 102.5,101C 92.9466,99.0149 85.2799,101.848 79.5,109.5C 78.8333,109.833 78.1667,110.167 77.5,110.5C 80.1495,105.027 84.4828,101.527 90.5,100C 100.068,97.7647 108.401,99.9313 115.5,106.5C 116.428,107.768 116.595,109.101 116,110.5C 113.838,114.368 110.672,115.868 106.5,115C 99.6865,109.129 93.1865,109.629 87,116.5C 82.8252,130.5 87.9919,137.167 102.5,136.5 Z"/></g>
<g><path style="opacity:0.31" fill="#f3fbcf" d="M 368.5,109.5 C 368.573,111.027 367.906,112.027 366.5,112.5C 366.427,110.973 367.094,109.973 368.5,109.5 Z"/></g>
<g><path style="opacity:0.129" fill="#f7fce4" d="M 77.5,110.5 C 77.573,112.027 76.9063,113.027 75.5,113.5C 75.427,111.973 76.0937,110.973 77.5,110.5 Z"/></g>
<g><path style="opacity:0.082" fill="#f8fdea" d="M 188.5,111.5 C 188.598,113.553 187.931,115.22 186.5,116.5C 186.402,114.447 187.069,112.78 188.5,111.5 Z"/></g>
<g><path style="opacity:0.482" fill="#f2fbcd" d="M 292.5,101.5 C 286.926,104.849 284.593,109.849 285.5,116.5C 284.539,114.735 284.205,112.735 284.5,110.5C 285.047,105.619 287.714,102.619 292.5,101.5 Z"/></g>
<g><path style="opacity:0.03" fill="#f9fce9" d="M 312.5,144.5 C 320.064,131.948 316.731,123.615 302.5,119.5C 299.657,118.828 297.157,117.495 295,115.5C 294.333,114.167 294.333,112.833 295,111.5C 299.927,108.561 304.427,109.228 308.5,113.5C 310.5,111.833 312.5,110.167 314.5,108.5C 308.883,101.036 301.549,98.7023 292.5,101.5C 300.713,98.029 308.213,99.3623 315,105.5C 315.667,107.167 315.667,108.833 315,110.5C 312.555,111.977 310.388,113.81 308.5,116C 304.496,117.105 302.496,115.605 302.5,111.5C 299.682,111.495 298.515,112.828 299,115.5C 303.722,117.226 308.222,119.393 312.5,122C 317.15,126.574 318.65,132.074 317,138.5C 316.434,141.229 314.934,143.229 312.5,144.5 Z"/></g>
<g><path style="opacity:0.131" fill="#f9fdec" d="M 1.5,128.5 C 9.68413,128.826 17.6841,128.492 25.5,127.5C 25.5,124.167 25.5,120.833 25.5,117.5C 34.5246,117.168 43.5246,117.502 52.5,118.5C 53.652,120.825 55.4853,122.158 58,122.5C 64.8564,119.907 66.0231,115.74 61.5,110C 57.5407,108.638 54.5407,109.638 52.5,113C 43.5062,113.5 34.5062,113.666 25.5,113.5C 25.5,110.167 25.5,106.833 25.5,103.5C 17.6841,102.508 9.68413,102.174 1.5,102.5C 9.37086,101.805 17.3709,101.138 25.5,100.5C 26.4909,104.445 26.8242,108.445 26.5,112.5C 34.84,112.666 43.1733,112.5 51.5,112C 55.0922,106.895 59.2588,106.395 64,110.5C 66.9398,117.287 64.9398,121.953 58,124.5C 55.1188,123.788 52.9522,122.122 51.5,119.5C 43.5208,118.335 35.5208,118.168 27.5,119C 26.5442,122.394 26.2108,125.894 26.5,129.5C 17.9832,129.826 9.64991,129.493 1.5,128.5 Z"/></g>
<g><path style="opacity:0.114" fill="#f5fcd9" d="M 203.5,102.5 C 208.07,112.197 212.07,122.197 215.5,132.5C 210.3,123.087 206.3,113.087 203.5,102.5 Z"/></g>
<g><path style="opacity:0.29" fill="#f5fcdc" d="M 75.5,113.5 C 74.6932,119.464 74.3599,125.464 74.5,131.5C 71.9159,125.388 72.2492,119.388 75.5,113.5 Z"/></g>
<g><path style="opacity:0.094" fill="#f8fcea" d="M 186.5,116.5 C 186.598,118.553 185.931,120.22 184.5,121.5C 184.402,119.447 185.069,117.78 186.5,116.5 Z"/></g>
<g><path style="opacity:0.012" fill="#fafdef" d="M 196.5,115.5 C 197.75,115.577 198.583,116.244 199,117.5C 201.079,121.653 202.579,125.986 203.5,130.5C 199.445,130.824 195.445,130.491 191.5,129.5C 193.572,124.95 195.238,120.283 196.5,115.5 Z M 196.5,120.5 C 196.795,122.423 197.628,124.09 199,125.5C 199.741,122.981 198.908,121.315 196.5,120.5 Z M 197.5,126.5 C 197.423,127.75 196.756,128.583 195.5,129C 197.134,129.494 198.801,129.66 200.5,129.5C 200.5,128.5 200.5,127.5 200.5,126.5C 199.5,126.5 198.5,126.5 197.5,126.5 Z"/></g>
<g><path style="opacity:0.031" fill="#f9fcea" d="M 267.5,129.5 C 267.167,129.5 266.833,129.5 266.5,129.5C 263.678,123.741 259.011,120.408 252.5,119.5C 247.841,118.689 245.674,116.022 246,111.5C 248.497,109.522 251.331,109.022 254.5,110C 259.75,114.772 262.916,113.605 264,106.5C 260.815,102.492 256.649,100.492 251.5,100.5C 237.231,102.035 233.064,109.368 239,122.5C 244.511,125.838 250.344,128.505 256.5,130.5C 258.228,133.883 257.561,136.55 254.5,138.5C 251.813,138.664 249.146,138.497 246.5,138C 243.935,135.92 241.268,134.087 238.5,132.5C 239.635,130.787 241.302,130.12 243.5,130.5C 243.414,129.504 243.748,128.671 244.5,128C 234.817,122.952 232.317,115.452 237,105.5C 240.638,101.174 245.305,99.1738 251,99.5C 258.053,99.106 263.22,101.939 266.5,108C 263.881,113.646 259.548,116.313 253.5,116C 252.167,114.667 252.167,113.333 253.5,112C 251.833,111.333 250.167,111.333 248.5,112C 247.978,112.561 247.645,113.228 247.5,114C 252.732,116.648 258.065,119.314 263.5,122C 265.54,124.185 266.874,126.685 267.5,129.5 Z M 243.5,130.5 C 248.706,128.504 253.039,129.67 256.5,134C 250.694,138.103 246.361,136.936 243.5,130.5 Z"/></g>
<g><path style="opacity:1" fill="#d6f65b" d="M 252.5,119.5 C 259.011,120.408 263.678,123.741 266.5,129.5C 266.5,132.5 266.5,135.5 266.5,138.5C 264.746,142.588 261.746,145.255 257.5,146.5C 254.482,146.665 251.482,146.498 248.5,146C 255.488,146.775 257.488,144.275 254.5,138.5C 257.561,136.55 258.228,133.883 256.5,130.5C 255.884,128.583 254.55,127.416 252.5,127C 253.711,126.107 253.711,125.274 252.5,124.5C 250.902,125.485 249.235,125.651 247.5,125C 249.614,123.502 250.114,121.669 249,119.5C 250.292,120.791 251.458,120.791 252.5,119.5 Z"/></g>
<g><path style="opacity:0.518" fill="#f0fbc6" d="M 366.5,112.5 C 364.915,117.678 364.248,123.012 364.5,128.5C 364.167,128.5 363.833,128.5 363.5,128.5C 361.969,122.636 362.969,117.303 366.5,112.5 Z"/></g>
<g><path style="opacity:1" fill="#d7f65e" d="M 302.5,119.5 C 316.731,123.615 320.064,131.948 312.5,144.5C 306.464,147.09 300.13,148.09 293.5,147.5C 288.784,145.623 285.118,142.456 282.5,138C 284.329,136.005 286.329,134.172 288.5,132.5C 290.69,134.524 293.023,136.357 295.5,138C 299.118,138.966 302.451,138.466 305.5,136.5C 306.631,134.926 306.798,133.259 306,131.5C 302.543,129.526 299.043,127.86 295.5,126.5C 297.674,126.92 299.674,126.92 301.5,126.5C 299.012,125.312 296.678,123.979 294.5,122.5C 297.387,122.501 300.054,121.501 302.5,119.5 Z"/></g>
<g><path style="opacity:1" fill="#d7f65e" d="M 46.5,145.5 C 45.8333,145.5 45.1667,145.5 44.5,145.5C 41.4299,145.632 38.4299,145.299 35.5,144.5C 33.78,141.111 33.1134,137.444 33.5,133.5C 35.2959,132.207 36.9625,130.707 38.5,129C 45.1717,127.998 48.8384,130.831 49.5,137.5C 49.6004,140.624 48.6004,143.29 46.5,145.5 Z"/></g>
<g><path style="opacity:0.071" fill="#f7fce2" d="M 184.5,121.5 C 184.152,126.456 182.486,130.789 179.5,134.5C 180.37,129.777 182.036,125.444 184.5,121.5 Z"/></g>
<g><path style="opacity:0.012" fill="#f9fce9" d="M 284.5,110.5 C 284.205,112.735 284.539,114.735 285.5,116.5C 286.833,121.833 290.167,125.167 295.5,126.5C 299.043,127.86 302.543,129.526 306,131.5C 306.798,133.259 306.631,134.926 305.5,136.5C 302.451,138.466 299.118,138.966 295.5,138C 293.023,136.357 290.69,134.524 288.5,132.5C 286.329,134.172 284.329,136.005 282.5,138C 285.118,142.456 288.784,145.623 293.5,147.5C 288.685,146.84 284.851,144.506 282,140.5C 282.431,134.894 285.597,131.561 291.5,130.5C 293.004,134.508 295.837,136.842 300,137.5C 302.179,136.884 304.012,135.717 305.5,134C 304.833,132.667 303.833,131.667 302.5,131C 295.891,130.237 290.391,127.404 286,122.5C 283.647,118.556 283.147,114.556 284.5,110.5 Z"/></g>
<g><path style="opacity:1" fill="#d6f65c" d="M 408.5,132.5 C 408.038,134.757 407.038,136.757 405.5,138.5C 409.701,142.604 409.035,145.937 403.5,148.5C 401.796,146.959 399.963,145.625 398,144.5C 389.629,148.681 381.462,148.348 373.5,143.5C 372.167,141.833 370.833,140.167 369.5,138.5C 369.147,136.365 369.98,135.032 372,134.5C 374.305,135.976 376.138,137.976 377.5,140.5C 378.354,139.478 379.354,138.645 380.5,138C 377.903,137.221 377.903,136.721 380.5,136.5C 383.931,138.388 387.598,138.888 391.5,138C 392.684,136.855 392.684,135.688 391.5,134.5C 392.688,133.636 393.855,132.636 395,131.5C 394.651,135.376 395.484,135.376 397.5,131.5C 399.071,132.309 400.738,132.643 402.5,132.5C 402.281,131.325 402.614,130.325 403.5,129.5C 404.396,130.506 405.062,130.506 405.5,129.5C 404.965,127.729 404.131,127.396 403,128.5C 402.333,127.167 402.333,125.833 403,124.5C 404.011,125.337 405.178,125.67 406.5,125.5C 406.171,128.228 406.837,130.562 408.5,132.5 Z"/></g>
<g><path style="opacity:0.02" fill="#f9fdeb" d="M 383.5,109.5 C 386.187,109.336 388.854,109.503 391.5,110C 401.33,114.147 403.997,120.98 399.5,130.5C 397.709,128.587 395.709,126.92 393.5,125.5C 391.807,127.027 389.973,128.36 388,129.5C 388.077,131.772 389.243,133.438 391.5,134.5C 392.684,135.688 392.684,136.855 391.5,138C 387.598,138.888 383.931,138.388 380.5,136.5C 374.804,131.432 372.971,125.099 375,117.5C 377.157,114.024 379.99,111.357 383.5,109.5 Z M 386.5,110.5 C 394.964,111.299 399.298,115.965 399.5,124.5C 397.09,123.937 394.757,123.437 392.5,123C 391.252,124.959 389.585,126.459 387.5,127.5C 386.224,130.034 385.89,132.534 386.5,135C 386,135.5 385.5,136 385,136.5C 376.698,132.605 374.031,126.272 377,117.5C 379.529,114.115 382.696,111.782 386.5,110.5 Z"/></g>
<g><path style="opacity:0.696" fill="#eefabb" d="M 266.5,129.5 C 266.833,129.5 267.167,129.5 267.5,129.5C 268.833,132.5 268.833,135.5 267.5,138.5C 267.167,138.5 266.833,138.5 266.5,138.5C 266.5,135.5 266.5,132.5 266.5,129.5 Z"/></g>
<g><path style="opacity:0.063" fill="#f8fceb" d="M 363.5,128.5 C 363.833,128.5 364.167,128.5 364.5,128.5C 365.292,132.078 366.625,135.412 368.5,138.5C 365.259,136.017 363.592,132.684 363.5,128.5 Z"/></g>
<g><path style="opacity:0.016" fill="#fafdf0" d="M 215.5,132.5 C 217.403,135.53 218.737,138.863 219.5,142.5C 217.206,139.63 215.872,136.297 215.5,132.5 Z"/></g>
<g><path style="opacity:1" fill="#d7f65f" d="M 238.5,132.5 C 241.268,134.087 243.935,135.92 246.5,138C 249.146,138.497 251.813,138.664 254.5,138.5C 257.488,144.275 255.488,146.775 248.5,146C 251.482,146.498 254.482,146.665 257.5,146.5C 252.325,147.559 246.991,147.559 241.5,146.5C 238.349,144.181 235.682,141.347 233.5,138C 235.351,136.317 237.017,134.484 238.5,132.5 Z"/></g>
<g><path style="opacity:0.339" fill="#f5fcdd" d="M 33.5,133.5 C 33.1134,137.444 33.78,141.111 35.5,144.5C 33.1484,142.856 31.8151,140.523 31.5,137.5C 31.9943,135.974 32.661,134.641 33.5,133.5 Z"/></g>
<g><path style="opacity:0.09" fill="#f5fbd6" d="M 74.5,131.5 C 76.3794,132.895 77.3794,134.895 77.5,137.5C 75.461,136.089 74.461,134.089 74.5,131.5 Z"/></g>
<g><path style="opacity:0.016" fill="#f8fce5" d="M 77.5,137.5 C 80.1667,139.5 82.5,141.833 84.5,144.5C 81.1667,143.167 78.8333,140.833 77.5,137.5 Z"/></g>
<g><path style="opacity:0.999" fill="#d7f65e" d="M 87.5,144.5 C 87.33,143.178 87.6634,142.011 88.5,141C 90.1667,140.667 91.8333,140.333 93.5,140C 90.9028,139.221 90.9028,138.721 93.5,138.5C 96.1873,138.664 98.854,138.497 101.5,138C 102.056,137.617 102.389,137.117 102.5,136.5C 105.135,135.317 107.802,134.484 110.5,134C 115.193,136.689 115.527,139.689 111.5,143C 103.691,148.148 95.6909,148.648 87.5,144.5 Z"/></g>
<g><path style="opacity:0.09" fill="#f7fce2" d="M 238.5,132.5 C 237.017,134.484 235.351,136.317 233.5,138C 235.682,141.347 238.349,144.181 241.5,146.5C 235.528,144.907 232.861,141.24 233.5,135.5C 234.94,134.048 236.606,133.048 238.5,132.5 Z"/></g>
<g><path style="opacity:0.094" fill="#f8fcea" d="M 210.5,146.5 C 213.625,147.479 216.958,147.813 220.5,147.5C 220.5,146.5 220.5,145.5 220.5,144.5C 221.434,145.568 221.768,146.901 221.5,148.5C 217.486,148.666 213.486,148.499 209.5,148C 208.214,145.978 207.214,143.811 206.5,141.5C 200.833,140.167 195.167,140.167 189.5,141.5C 188.725,143.396 187.725,145.063 186.5,146.5C 186.5,145.833 186.5,145.167 186.5,144.5C 186.703,142.956 187.37,141.622 188.5,140.5C 194.833,139.167 201.167,139.167 207.5,140.5C 208.519,142.604 209.519,144.604 210.5,146.5 Z"/></g>
<g><path style="opacity:0.016" fill="#f8fce6" d="M 368.5,138.5 C 368.833,138.5 369.167,138.5 369.5,138.5C 370.833,140.167 372.167,141.833 373.5,143.5C 370.833,142.833 369.167,141.167 368.5,138.5 Z"/></g>
<g><path style="opacity:0.796" fill="#f1fac5" d="M 179.5,134.5 C 179.397,137.636 178.397,140.302 176.5,142.5C 176.733,139.458 177.733,136.792 179.5,134.5 Z"/></g>
<g><path style="opacity:0.145" fill="#f8fce4" d="M 46.5,145.5 C 48.6004,143.29 49.6004,140.624 49.5,137.5C 48.8384,130.831 45.1717,127.998 38.5,129C 36.9625,130.707 35.2959,132.207 33.5,133.5C 35.3665,128.812 38.8665,126.145 44,125.5C 45.0113,126.337 46.1779,126.67 47.5,126.5C 48.941,129.895 50.2744,133.395 51.5,137C 51.0664,139.634 50.233,142.134 49,144.5C 48.3292,145.252 47.4959,145.586 46.5,145.5 Z"/></g>
<g><path style="opacity:0.812" fill="#e9f9a6" d="M 35.5,144.5 C 38.4299,145.299 41.4299,145.632 44.5,145.5C 42.7354,146.461 40.7354,146.795 38.5,146.5C 36.9731,146.573 35.9731,145.906 35.5,144.5 Z"/></g>
<g><path style="opacity:0.997" fill="#ddf775" d="M 134.5,101.5 C 134.5,115.833 134.5,130.167 134.5,144.5C 142.65,145.493 150.983,145.826 159.5,145.5C 159.5,143.167 159.5,140.833 159.5,138.5C 153.974,138.821 148.64,138.488 143.5,137.5C 149.167,137.5 154.833,137.5 160.5,137.5C 160.5,140.5 160.5,143.5 160.5,146.5C 151.5,146.5 142.5,146.5 133.5,146.5C 133.171,131.324 133.504,116.324 134.5,101.5 Z"/></g>
<g><path style="opacity:0.008" fill="#f9fcea" d="M 44.5,145.5 C 45.1667,145.5 45.8333,145.5 46.5,145.5C 45.5081,147.026 44.0081,147.693 42,147.5C 40.6153,147.486 39.4486,147.152 38.5,146.5C 40.7354,146.795 42.7354,146.461 44.5,145.5 Z"/></g>
<g><path style="opacity:0.452" fill="#edfabb" d="M 176.5,142.5 C 176.5,143.833 176.5,145.167 176.5,146.5C 180.179,146.94 183.512,146.273 186.5,144.5C 186.5,145.167 186.5,145.833 186.5,146.5C 186.5,147.167 186.167,147.5 185.5,147.5C 182.167,147.5 178.833,147.5 175.5,147.5C 175.5,146.5 175.5,145.5 175.5,144.5C 175.328,143.508 175.662,142.842 176.5,142.5 Z"/></g>
<g><path style="opacity:0.467" fill="#eefac2" d="M 219.5,142.5 C 220.338,142.842 220.672,143.508 220.5,144.5C 220.5,145.5 220.5,146.5 220.5,147.5C 216.958,147.813 213.625,147.479 210.5,146.5C 213.5,146.5 216.5,146.5 219.5,146.5C 219.5,145.167 219.5,143.833 219.5,142.5 Z"/></g>
<g><path style="opacity:0.16" fill="#f6fcdf" d="M 84.5,144.5 C 85.5,144.5 86.5,144.5 87.5,144.5C 95.6909,148.648 103.691,148.148 111.5,143C 115.527,139.689 115.193,136.689 110.5,134C 107.802,134.484 105.135,135.317 102.5,136.5C 104.538,134.468 106.871,132.802 109.5,131.5C 112.274,133.566 114.941,135.733 117.5,138C 111.046,146.822 102.379,150.155 91.5,148C 88.8261,147.33 86.4927,146.163 84.5,144.5 Z"/></g>
<g><path style="opacity:0.051" fill="#fbfdf4" d="M 175.5,144.5 C 175.5,145.5 175.5,146.5 175.5,147.5C 178.833,147.5 182.167,147.5 185.5,147.5C 182.038,148.482 178.371,148.815 174.5,148.5C 174.232,146.901 174.566,145.568 175.5,144.5 Z"/></g>
<g><path style="opacity:0.192" fill="#f4fcd7" d="M 266.5,138.5 C 266.833,138.5 267.167,138.5 267.5,138.5C 266.115,143.056 263.115,146.222 258.5,148C 253.833,148.667 249.167,148.667 244.5,148C 243.263,147.768 242.263,147.268 241.5,146.5C 246.991,147.559 252.325,147.559 257.5,146.5C 261.746,145.255 264.746,142.588 266.5,138.5 Z"/></g>
<g><path style="opacity:0.247" fill="#f5fcdb" d="M 312.5,144.5 C 311.251,146.136 309.584,147.303 307.5,148C 302.648,148.815 297.981,148.648 293.5,147.5C 300.13,148.09 306.464,147.09 312.5,144.5 Z"/></g>
<g><path style="opacity:0.106" fill="#f7fce4" d="M 408.5,132.5 C 408.833,132.5 409.167,132.5 409.5,132.5C 409.5,137.5 409.5,142.5 409.5,147.5C 407.264,148.389 405.264,149.722 403.5,151.5C 401.655,149.769 399.822,148.102 398,146.5C 392.67,148.475 387.17,148.975 381.5,148C 378.316,147.246 375.649,145.746 373.5,143.5C 381.462,148.348 389.629,148.681 398,144.5C 399.963,145.625 401.796,146.959 403.5,148.5C 409.035,145.937 409.701,142.604 405.5,138.5C 407.038,136.757 408.038,134.757 408.5,132.5 Z"/></g>
</svg>
