<svg data-slug-id="quantum" viewBox="0 0 36 36" xmlns="http://www.w3.org/2000/svg">
  <rect x="13.1" y="6.2" fill="#50E6FF" width="0.7" height="26.1"/>
  <rect x="8.6" y="8.9" fill="#50E6FF" width="0.7" height="20.9"/>
  <rect x="17.6" y="3.6" fill="#50E6FF" width="0.7" height="31.3"/>
  <rect x="22.2" y="1" fill="#50E6FF" width="0.7" height="31.3"/>
  <rect x="26.7" y="3.6" fill="#50E6FF" width="0.7" height="26.1"/>
  <rect x="13.7" y="17.7" transform="matrix(0.5001 -0.8659 0.8659 0.5001 -16.7672 25.8867)" fill="#50E6FF" width="0.7" height="19.6"/>
  <rect x="16.5" y="12.1" transform="matrix(0.5001 -0.866 0.866 0.5001 -12.2452 26.5435)" fill="#50E6FF" width="0.7" height="23.5"/>
  <rect x="12.6" y="10.5" transform="matrix(0.5002 -0.8659 0.8659 0.5002 -7.7195 19.3578)" fill="#50E6FF" width="0.7" height="11.8"/>
  <rect x="21.6" y="6.6" transform="matrix(0.4999 -0.8661 0.8661 0.4999 -3.1923 27.2038)" fill="#50E6FF" width="0.7" height="19.6"/>
  <rect x="21" y="1.7" transform="matrix(0.5002 -0.8659 0.8659 0.5002 1.3265 23.9319)" fill="#50E6FF" width="0.7" height="18.3"/>
  <rect x="22.7" y="0.7" transform="matrix(0.5 -0.866 0.866 0.5 5.8521 23.2815)" fill="#50E6FF" width="0.7" height="11.8"/>
  <rect x="12.1" y="27" transform="matrix(0.8663 -0.4995 0.4995 0.8663 -10.7366 14.688)" fill="#50E6FF" width="19.8" height="0.7"/>
  <rect x="7.3" y="23.4" transform="matrix(0.8663 -0.4995 0.4995 0.8663 -9.273 12.8442)" fill="#50E6FF" width="24" height="0.7"/>
  <rect x="17.2" y="15.8" transform="matrix(0.8663 -0.4995 0.4995 0.8663 -4.9458 13.864)" fill="#50E6FF" width="12.5" height="0.7"/>
  <rect x="4.2" y="14.5" transform="matrix(0.8663 -0.4995 0.4995 0.8663 -5.1714 10.4273)" fill="#50E6FF" width="25.4" height="0.7"/>
  <rect x="6.9" y="13" transform="matrix(0.866 -0.5001 0.5001 0.866 -5.3028 7.0018)" fill="#50E6FF" width="7" height="0.7"/>
  <path fill="#0062AD" d="M18,35.7c-0.1,0-0.2,0-0.4-0.1L4.1,27.8c-0.2-0.1-0.4-0.4-0.4-0.6s0.1-0.5,0.4-0.6l13.6-7.8
		c0.2-0.1,0.5-0.1,0.7,0l13.6,7.8c0.2,0.1,0.4,0.4,0.4,0.6s-0.1,0.5-0.4,0.6l-13.6,7.8C18.2,35.7,18.1,35.7,18,35.7z M5.9,27.1
		l12.1,7l12.1-7l-12.1-7L5.9,27.1z"/>
  <path fill="#0062AD" d="M13.5,12.2c-0.1,0-0.2,0-0.4-0.1L8.6,9.5C8.4,9.4,8.2,9.1,8.2,8.9c0-0.3,0.1-0.5,0.4-0.6l13.6-7.8
		c0.2-0.1,0.5-0.1,0.7,0L27.4,3c0.2,0.1,0.4,0.4,0.4,0.6c0,0.3-0.1,0.5-0.4,0.6l-13.6,7.8C13.7,12.2,13.6,12.2,13.5,12.2z M10.4,8.9
		l3.1,1.8l12.1-7l-3.1-1.8L10.4,8.9z"/>
  <rect x="15" y="11.3" transform="matrix(0.982 -0.1888 0.1888 0.982 -4.1012 3.3887)" fill="#0062AD" width="1.4" height="23.9"/>
  <rect x="10.8" y="9.4" transform="matrix(0.2409 -0.9706 0.9706 0.2409 5.5147 27.3791)" fill="#0062AD" width="18.8" height="1.4"/>
  <rect x="28.6" y="3.4" transform="matrix(0.982 -0.189 0.189 0.982 -2.3799 5.8163)" fill="#0062AD" width="1.4" height="23.9"/>
  <rect x="-2.7" y="17.3" transform="matrix(0.2396 -0.9709 0.9709 0.2396 -12.3878 20.1831)" fill="#0062AD" width="18.8" height="1.4"/>
</svg>